<svg xmlns="http://www.w3.org/2000/svg" width="100.797" height="40.734" viewBox="0 0 100.797 40.734"><defs><style>.a{fill:#fff;}</style></defs><g transform="translate(50.398 20.367)"><g transform="translate(-50.398 -20.367)"><path class="a" d="M74.839,22.749A12.989,12.989,0,0,1,90.3,9.97l1.63-6.153a19.352,19.352,0,0,0-9.992,37.338L83.569,35A13.042,13.042,0,0,1,74.839,22.749Z" transform="translate(-32.521 -1.608)"/><path class="a" d="M107.544,5.1l-1.63,6.153a12.989,12.989,0,0,1-6.731,25.085L97.5,42.489A19.352,19.352,0,1,0,107.492,5.1Z" transform="translate(-46.242 -2.416)"/><path class="a" d="M.066,38.81a.947.947,0,0,0,.947,1.21h4a1.735,1.735,0,0,0,1.578-1.21l10.1-37.6A.947.947,0,0,0,15.738,0h-4a1.735,1.735,0,0,0-1.578,1.21Z" transform="translate(-0.029 0.001)"/><path class="a" d="M37.768,8.142A10.412,10.412,0,0,0,29.406,4.2H26.987l-1.735,6.363h4.154a4.154,4.154,0,0,1,3.366,1.525,4.838,4.838,0,0,1,.841,4.1c-1.472,6.468-4.1,7.362-6.679,7.362H19.783L18.1,29.914h8.835c6.679,0,10.991-4.154,12.884-12.306a11.149,11.149,0,0,0-2.051-9.466Z" transform="translate(-8.597 -1.989)"/><path class="a" d="M147.264,38.442a1.262,1.262,0,0,0,1.21,1.578h4.943L163.724,1.578A1.262,1.262,0,0,0,162.514,0H158.57a1.262,1.262,0,0,0-1.21.947Z" transform="translate(-69.816 0.001)"/><path class="a" d="M174.934,64H160.683L159,70.363h15.934A1.262,1.262,0,0,0,176.2,69.1V65.262A1.262,1.262,0,0,0,174.934,64Z" transform="translate(-75.4 -30.343)"/></g></g></svg>